<svg width="26" height="26" viewBox="0 0 26 26" fill="none" xmlns="http://www.w3.org/2000/svg">
<g clip-path="url(#clip0_74_104)">
<path d="M24.219 0.0630035L19.375 1.313L21.813 2.75L17.969 3.75L15.5 2.344L10.687 3.594L13.125 5.031L9.25 6.031L6.812 4.625L1.969 5.875L5.625 8.031L24.969 2.97L24.219 0.0640035V0.0630035ZM2 8C1.46957 8 0.960859 8.21072 0.585786 8.58579C0.210714 8.96086 0 9.46957 0 10C0 10.5304 0.210714 11.0391 0.585786 11.4142C0.960859 11.7893 1.46957 12 2 12C2.53043 12 3.03914 11.7893 3.41421 11.4142C3.78929 11.0391 4 10.5304 4 10C4 9.46957 3.78929 8.96086 3.41421 8.58579C3.03914 8.21072 2.53043 8 2 8ZM6 11L3 14H8L11 11H6ZM15 11L12 14H17L20 11H15ZM24 11L21 14H26V11H24ZM0 15V23C0 23.7957 0.31607 24.5587 0.87868 25.1213C1.44129 25.6839 2.20435 26 3 26H23C23.7956 26 24.5587 25.6839 25.1213 25.1213C25.6839 24.5587 26 23.7957 26 23V15H0Z" fill="#D61D1F"/>
</g>
<defs>
<clipPath id="clip0_74_104">
<rect width="26" height="26" fill="white"/>
</clipPath>
</defs>
</svg>
